<?xml version="1.0" encoding="UTF-8"?>
<svg width="120px" height="40px" viewBox="0 0 120 40" version="1.1" xmlns="http://www.w3.org/2000/svg" xmlns:xlink="http://www.w3.org/1999/xlink">
    <title>logo_black</title>
    <defs>
        <linearGradient x1="33.1725633%" y1="55.6311149%" x2="109.212038%" y2="43.553289%" id="linearGradient-1">
            <stop stop-color="#02AAFF" offset="0%"></stop>
            <stop stop-color="#06DEC6" offset="100%"></stop>
        </linearGradient>
        <linearGradient x1="19.0933016%" y1="47.1250646%" x2="66.050149%" y2="91.7216748%" id="linearGradient-2">
            <stop stop-color="#C0CFFF" offset="0%"></stop>
            <stop stop-color="#718DEA" offset="23.0855968%"></stop>
            <stop stop-color="#5E7CE0" offset="80.5655499%"></stop>
            <stop stop-color="#001030" offset="100%"></stop>
        </linearGradient>
        <linearGradient x1="26.7191597%" y1="53.2411087%" x2="53.3918126%" y2="84.6712413%" id="linearGradient-3">
            <stop stop-color="#C0CFFF" offset="0%"></stop>
            <stop stop-color="#718DEA" offset="23.0855968%"></stop>
            <stop stop-color="#5E7CE0" offset="76.4470077%"></stop>
            <stop stop-color="#001030" offset="100%"></stop>
        </linearGradient>
        <linearGradient x1="33.392937%" y1="100%" x2="78.6216974%" y2="24.6088283%" id="linearGradient-4">
            <stop stop-color="#02AAFF" offset="0%"></stop>
            <stop stop-color="#06DEC6" offset="100%"></stop>
        </linearGradient>
    </defs>
    <g id="logo_black" stroke="none" stroke-width="1" fill="none" fill-rule="evenodd">
        <g id="编组-43备份-14" transform="translate(0.000000, 8.000000)">
            <path d="M6.78947994,2.30769231 L12.1336095,2.30769231 C13.4617761,2.30769231 14.5384678,3.23756244 14.5384678,4.38461538 C14.5384678,5.53166833 13.4617761,6.46153846 12.1336095,6.46153846 L6.78947994,6.46153846 C5.46131338,6.46153846 4.38462164,5.53166833 4.38462164,4.38461538 C4.38462164,3.23756244 5.46131338,2.30769231 6.78947994,2.30769231 Z" id="矩形备份-12" fill="url(#linearGradient-1)"></path>
            <path d="M10.6755327,2.30769231 C10.1269915,2.45467349 9.68886099,2.8215723 9.42229317,3.27538441 L4.466,11.8576923 L7.636,17.3466923 L10.749272,17.3467692 C11.8963249,17.3467692 12.8261951,18.2766394 12.8261951,19.4236923 C12.8261951,20.5707453 11.8963249,21.5006154 10.749272,21.5006154 L6.51623836,21.5006154 C6.23261591,21.5006154 5.96227168,21.4437646 5.7159795,21.3408368 C5.26817507,21.1812773 4.87233928,20.8676274 4.61584709,20.4233698 L0.346616319,13.0288452 C0.301284132,12.9503276 0.261661429,12.8700803 0.227619393,12.7885842 C-0.0812328752,12.1828837 -0.086743608,11.4377159 0.278613996,10.8048979 L4.62288324,3.27538441 L4.66020654,3.21325227 C4.91556609,2.80438883 5.31297517,2.48297538 5.8054601,2.33037274 L5.88400414,2.30769231 L10.6755327,2.30769231 Z" id="形状结合" fill="url(#linearGradient-2)"></path>
            <path d="M29.0770774,1.14692308 C28.5285362,1.29390426 28.0904057,1.66080307 27.8238379,2.11461518 L22.8675447,10.6969231 L27.3070358,18.3847896 C27.8805623,19.3781666 27.5402062,20.6483928 26.5468292,21.2219193 C25.5534522,21.7954458 24.283226,21.4550897 23.7096995,20.4617127 L18.748161,11.868076 C18.7028289,11.7895584 18.6632061,11.7093111 18.6291641,11.627815 C18.3203118,11.0221145 18.3148011,10.2769466 18.6801587,9.6441287 L23.024428,2.11461518 L23.0617513,2.05248303 C23.3171108,1.6436196 23.7145199,1.32220615 24.2070048,1.16960351 L24.2855489,1.14692308 L29.0770774,1.14692308 Z" id="形状结合备份" fill="url(#linearGradient-3)" transform="translate(23.739311, 11.323722) scale(-1, -1) translate(-23.739311, -11.323722) "></path>
            <path d="M12.5584561,23.200116 L12.514088,23.2504711 C12.214105,23.5793109 11.8166108,23.7869154 11.3781424,23.8068538 L11.3085783,23.8084327 C7.65336283,23.8084327 5.98685912,23.8084327 6.30906716,23.8084327 C6.79237922,23.8084327 7.2303857,23.5805107 7.54948353,23.2111547 L20.9269278,0.608316685 L20.9712959,0.557961624 C21.2712789,0.229121786 21.6687731,0.0215172746 22.1072415,0.00157892299 L22.1768056,1.42108547e-14 L27.1763167,1.42108547e-14 C26.6930047,1.42108547e-14 26.2549982,0.227922061 25.9359003,0.597278066 L12.5584561,23.200116 Z" id="路径" fill="url(#linearGradient-4)"></path>
        </g>
        <path d="M43.2800063,27.24 C45.5800063,27.24 47.1600063,26.36 48.4000063,24.34 C48.4600063,24.22 48.4400063,24.14 48.3400063,24.06 L45.9800063,22.74 C45.8600063,22.68 45.7600063,22.74 45.6800063,22.88 C45.2000063,23.68 44.6200063,24.22 43.7600063,24.22 C42.8400063,24.22 42.3200063,23.6 42.3200063,22.64 C42.3200063,21.64 42.9200063,18.32 43.3200063,17.48 C43.7200063,16.68 44.3200063,16.18 45.1600063,16.18 C46.0600063,16.18 46.4600063,16.68 46.6600063,17.5 C46.6800063,17.64 46.7800063,17.68 46.9400063,17.62 L49.5600063,16.56 C49.7000063,16.5 49.7400063,16.42 49.7000063,16.3 C49.2600063,14.34 47.8200063,13.16 45.5200063,13.16 C43.0600063,13.16 41.3000063,14.18 40.2400063,16.36 C39.4600063,17.92 38.9000063,21.64 38.9000063,22.96 C38.9000063,25.74 40.7000063,27.24 43.2800063,27.24 Z M53.5800063,27.24 C55.6800063,27.24 57.3400063,26.48 58.3000063,24.54 C58.8400063,23.44 59.1000063,21.76 59.1000063,20.64 C59.1000063,18.28 57.5600063,17.02 55.2600063,17.02 C53.1600063,17.02 51.5000063,17.78 50.5400063,19.72 C50.0000063,20.82 49.7400063,22.5 49.7400063,23.62 C49.7400063,25.98 51.2800063,27.24 53.5800063,27.24 Z M53.9800063,24.58 C53.2400063,24.58 52.9600063,24.16 52.9600063,23.4 C52.9600063,22.82 53.2600063,21.16 53.5400063,20.56 C53.8600063,19.94 54.3000063,19.68 54.8600063,19.68 C55.5800063,19.68 55.8800063,20.1 55.8800063,20.86 C55.8800063,21.44 55.5800063,23.1 55.3000063,23.7 C54.9800063,24.32 54.5400063,24.58 53.9800063,24.58 Z M62.7200063,27.24 C63.9000063,27.24 64.8000063,26.76 65.3400063,26.06 L65.3600063,26.06 L65.2400063,26.8 C65.2200063,26.92 65.2800063,27 65.4000063,27 L68.2400063,27 C68.3600063,27 68.4400063,26.92 68.4600063,26.8 L70.8000063,13.6 C70.8200063,13.48 70.7400063,13.4 70.6200063,13.4 L67.7600063,13.4 C67.6600063,13.4 67.5800063,13.48 67.5600063,13.6 L66.7400063,18.22 L66.7200063,18.22 C66.4400063,17.56 65.7000063,17.02 64.4800063,17.02 C62.9000063,17.02 61.8000063,17.64 61.0400063,19.18 C60.4200063,20.44 59.9800063,22.74 59.9800063,24.06 C59.9800063,26.04 60.8200063,27.24 62.7200063,27.24 Z M64.3200063,24.58 C63.6000063,24.58 63.3000063,24.14 63.3000063,23.38 C63.3000063,22.76 63.6200063,21.1 63.8800063,20.56 C64.1800063,19.96 64.6000063,19.68 65.2000063,19.68 C65.9200063,19.68 66.2200063,20.12 66.2200063,20.88 C66.2200063,21.5 65.9000063,23.16 65.6400063,23.7 C65.3400063,24.3 64.9200063,24.58 64.3200063,24.58 Z M74.7400063,27.24 C76.6400063,27.24 77.9600063,26.64 79.0800063,25.64 C79.1800063,25.56 79.1800063,25.42 79.1200063,25.32 L78.0200063,23.92 C77.9600063,23.84 77.8800063,23.82 77.7400063,23.9 C77.0600063,24.42 76.2600063,24.76 75.4800063,24.76 C74.4400063,24.76 73.8200063,24.38 73.8200063,23.42 C73.8200063,23.34 73.8200063,23.26 73.8400063,23.18 C73.8600063,23.1 73.9000063,23.06 73.9800063,23.06 L79.6000063,23.06 C79.7200063,23.06 79.8200063,22.98 79.8400063,22.86 C80.0400063,21.7 80.1000063,21.02 80.1000063,20.48 C80.1000063,18.24 78.5000063,17.02 76.3000063,17.02 C73.9800063,17.02 72.4600063,17.92 71.5800063,19.76 C71.0400063,20.84 70.7800063,22.42 70.7800063,23.64 C70.7800063,26.04 72.3400063,27.24 74.7400063,27.24 Z M76.9000063,21.08 L74.3400063,21.08 C74.2600063,21.08 74.2400063,21.04 74.2600063,20.96 C74.3000063,20.7 74.3600063,20.46 74.4400063,20.26 C74.7400063,19.68 75.2600063,19.34 75.9400063,19.34 C76.6800063,19.34 77.1200063,19.7 77.1200063,20.5 C77.1200063,20.62 77.1000063,20.8 77.0600063,20.96 C77.0400063,21.04 76.9800063,21.08 76.9000063,21.08 Z M84.0200063,27 C84.1400063,27 84.2000063,26.92 84.2200063,26.8 L85.1200063,21.74 C85.1400063,21.66 85.1800063,21.62 85.2400063,21.62 L88.8400063,21.62 C88.9200063,21.62 88.9600063,21.66 88.9400063,21.74 L88.0400063,26.8 C88.0200063,26.92 88.1000063,27 88.2200063,27 L91.2200063,27 C91.3400063,27 91.4200063,26.92 91.4400063,26.8 L93.7800063,13.6 C93.8000063,13.48 93.7200063,13.4 93.6000063,13.4 L90.6000063,13.4 C90.4800063,13.4 90.4000063,13.48 90.3800063,13.6 L89.5200063,18.48 C89.5000063,18.56 89.4600063,18.6 89.3800063,18.6 L85.7800063,18.6 C85.7200063,18.6 85.6800063,18.56 85.7000063,18.48 L86.5600063,13.6 C86.5800063,13.48 86.5200063,13.4 86.4000063,13.4 L83.4000063,13.4 C83.2800063,13.4 83.2000063,13.48 83.1800063,13.6 L80.8400063,26.8 C80.8200063,26.92 80.9000063,27 81.0200063,27 L84.0200063,27 Z M96.4600063,27.24 C97.6200063,27.24 98.5000063,26.76 99.1000063,26.06 L99.1200063,26.06 L98.9800063,26.8 C98.9600063,26.92 99.0400063,27 99.1400063,27 L102.000006,27 C102.120006,27 102.200006,26.92 102.220006,26.8 L103.860006,17.46 C103.880006,17.34 103.820006,17.26 103.700006,17.26 L100.840006,17.26 C100.720006,17.26 100.640006,17.34 100.620006,17.46 L99.6400063,23.06 C99.4800063,24 98.9800063,24.54 98.2400063,24.54 C97.4800063,24.54 97.2000063,23.96 97.3600063,23.06 L98.3400063,17.46 C98.3600063,17.34 98.2800063,17.26 98.1600063,17.26 L95.3400063,17.26 C95.2200063,17.26 95.1400063,17.34 95.1200063,17.46 L94.0400063,23.6 C93.6400063,25.76 94.3000063,27.24 96.4600063,27.24 Z M109.920006,27.24 C111.520006,27.24 112.620006,26.6 113.380006,25.08 C114.000006,23.8 114.440006,21.52 114.440006,20.2 C114.440006,18.22 113.580006,17.02 111.700006,17.02 C110.520006,17.02 109.620006,17.5 109.080006,18.2 L109.060006,18.2 L109.880006,13.6 C109.900006,13.48 109.820006,13.4 109.700006,13.4 L106.840006,13.4 C106.740006,13.4 106.660006,13.48 106.640006,13.6 L104.300006,26.8 C104.280006,26.92 104.360006,27 104.460006,27 L107.320006,27 C107.440006,27 107.520006,26.92 107.540006,26.8 L107.680006,26.06 L107.700006,26.06 C107.980006,26.72 108.700006,27.24 109.920006,27.24 Z M109.220006,24.58 C108.500006,24.58 108.200006,24.14 108.200006,23.38 C108.200006,22.76 108.520006,21.1 108.780006,20.56 C109.080006,19.96 109.500006,19.68 110.100006,19.68 C110.820006,19.68 111.120006,20.12 111.120006,20.88 C111.120006,21.5 110.800006,23.16 110.540006,23.7 C110.240006,24.3 109.820006,24.58 109.220006,24.58 Z" id="CodeHub" fill="#000" fill-rule="nonzero"></path>
    </g>
</svg>
