<svg viewBox="0 0 16 16" xmlns="http://www.w3.org/2000/svg" xmlns:xlink="http://www.w3.org/1999/xlink" width="16.000000" height="16.000000" fill="none">
	<rect id="技能-capability" width="16.000000" height="16.000000" x="0.000000" y="0.000000" />
	<path id="_合并" d="M8.72016 2.56992C8.78016 2.87992 8.87016 3.18992 8.98016 3.47992C9.08016 3.73992 9.19016 3.98992 9.32016 4.23992C9.45016 4.48992 9.60016 4.71992 9.77016 4.94992C9.95016 5.18992 10.1402 5.41992 10.3602 5.63992C10.5702 5.84992 10.8002 6.04992 11.0502 6.22992C11.2702 6.39992 11.5102 6.54992 11.7602 6.67992C12.0102 6.80992 12.2602 6.92992 12.5202 7.01992C12.8202 7.12992 13.1202 7.21992 13.4302 7.27992L14.6002 7.50992C14.7402 7.53992 14.8402 7.60992 14.9202 7.71992C15.0002 7.82992 15.0202 7.95992 14.9902 8.09992C14.9702 8.19992 14.9202 8.27992 14.8502 8.35992C14.8102 8.39992 14.7802 8.41992 14.7302 8.44992C14.6902 8.46992 14.6402 8.48992 14.5902 8.49992L13.4202 8.72992C13.1102 8.78992 12.8002 8.87992 12.5102 8.98992C12.2502 9.08992 12.0002 9.19992 11.7502 9.32992C11.5002 9.45992 11.2702 9.60992 11.0402 9.77992C10.8002 9.95992 10.5702 10.1499 10.3502 10.3699C10.1302 10.5899 9.94016 10.8099 9.76016 11.0599C9.59016 11.2899 9.44016 11.5199 9.31016 11.7699C9.18016 12.0199 9.06016 12.2699 8.97016 12.5299C8.86016 12.8299 8.77016 13.1299 8.71016 13.4399L8.48016 14.6099C8.45016 14.7499 8.38016 14.8499 8.27016 14.9299C8.16016 15.0099 8.03016 15.0299 7.89016 14.9999C7.79016 14.9799 7.71016 14.9299 7.63016 14.8599C7.56016 14.7899 7.51016 14.6999 7.49016 14.5999L7.26016 13.4299C7.20016 13.1199 7.11016 12.8099 7.00016 12.5199C6.90016 12.2599 6.79016 12.0099 6.66016 11.7599C6.53016 11.5099 6.38016 11.2699 6.21016 11.0499C6.03016 10.8099 5.84016 10.5799 5.62016 10.3599C5.41016 10.1399 5.18016 9.94992 4.93016 9.76992C4.71016 9.59992 4.47016 9.44992 4.22016 9.31992C3.97016 9.18992 3.72016 9.06992 3.46016 8.97992C3.16016 8.86992 2.86016 8.77992 2.55016 8.71992L1.38016 8.48992C1.24016 8.45992 1.14016 8.38992 1.06016 8.27992C1.02016 8.21992 1.00016 8.15992 0.980156 8.09992C0.970156 8.03992 0.970156 7.96992 0.980156 7.89992C1.00016 7.79992 1.05016 7.71992 1.12016 7.63992C1.19016 7.55992 1.28016 7.51992 1.38016 7.49992L2.55016 7.26992C2.86016 7.20992 3.17016 7.11992 3.46016 7.00992C3.72016 6.90992 3.97016 6.79992 4.22016 6.66992C4.47016 6.53992 4.71016 6.38992 4.93016 6.21992C5.17016 6.03992 5.40016 5.84992 5.62016 5.62992C5.83016 5.41992 6.03016 5.18992 6.21016 4.93992C6.38016 4.71992 6.53016 4.47992 6.66016 4.22992C6.79016 3.97992 6.91016 3.72992 7.00016 3.46992C7.11016 3.16992 7.20016 2.86992 7.26016 2.55992L7.49016 1.38992C7.50016 1.31992 7.53016 1.25992 7.56016 1.20992C7.59016 1.15992 7.64016 1.10992 7.70016 1.06992C7.76016 1.02992 7.82016 1.00992 7.88016 0.989922C7.94016 0.979922 8.01016 0.979922 8.08016 0.989922C8.18016 1.00992 8.26016 1.05992 8.34016 1.12992C8.38016 1.16992 8.40016 1.19992 8.43016 1.24992C8.46016 1.29992 8.47016 1.33992 8.48016 1.38992L8.71016 2.55992L8.72016 2.56992ZM10.8302 4.45992L12.6002 2.68992C12.8002 2.48992 13.1102 2.48992 13.3102 2.68992C13.5102 2.88992 13.5102 3.19992 13.3102 3.39992L11.5402 5.16992C11.3402 5.36992 11.0302 5.36992 10.8302 5.16992C10.6302 4.96992 10.6302 4.65992 10.8302 4.45992L10.8302 4.45992ZM3.40016 2.69992L5.17016 4.46992C5.37016 4.66992 5.37016 4.97992 5.17016 5.17992C4.97016 5.37992 4.66016 5.37992 4.46016 5.17992L2.69016 3.40992C2.49016 3.20992 2.49016 2.89992 2.69016 2.69992C2.89016 2.49992 3.20016 2.49992 3.40016 2.69992L3.40016 2.69992ZM7.96016 3.81992C7.96016 3.81992 7.99016 3.73992 8.00016 3.69992C8.01016 3.73992 8.03016 3.77992 8.04016 3.81992C8.15016 4.12992 8.29016 4.41992 8.44016 4.70992C8.60016 4.99992 8.77016 5.27992 8.97016 5.53992C9.18016 5.81992 9.41016 6.08992 9.65016 6.33992C9.90016 6.58992 10.1602 6.81992 10.4502 7.01992C10.7102 7.20992 10.9902 7.38992 11.2802 7.54992C11.5702 7.70992 11.8702 7.83992 12.1702 7.94992C12.2102 7.95992 12.2502 7.97992 12.2902 7.98992C12.2502 7.99992 12.2102 8.01992 12.1702 8.02992C11.8602 8.13992 11.5702 8.27992 11.2802 8.42992C10.9902 8.58992 10.7102 8.75992 10.4502 8.95992C10.1702 9.16992 9.90016 9.39992 9.65016 9.63992C9.40016 9.88992 9.17016 10.1499 8.97016 10.4399C8.78016 10.6999 8.60016 10.9799 8.44016 11.2699C8.28016 11.5599 8.15016 11.8599 8.04016 12.1599C8.03016 12.1999 8.01016 12.2399 8.00016 12.2799C8.00016 12.2599 7.99016 12.2499 7.98016 12.2299C7.98016 12.2099 7.96016 12.1799 7.95016 12.1599C7.84016 11.8499 7.70016 11.5599 7.55016 11.2699C7.39016 10.9799 7.22016 10.6999 7.02016 10.4399C6.81016 10.1599 6.58016 9.88992 6.34016 9.63992C6.09016 9.38992 5.83016 9.15992 5.54016 8.95992C5.28016 8.76992 5.00016 8.58992 4.71016 8.42992C4.42016 8.26992 4.12016 8.13992 3.82016 8.02992C3.78016 8.01992 3.74016 7.99992 3.70016 7.98992C3.74016 7.97992 3.78016 7.95992 3.82016 7.94992C4.13016 7.83992 4.42016 7.69992 4.71016 7.54992C5.00016 7.38992 5.28016 7.21992 5.54016 7.01992C5.82016 6.80992 6.09016 6.57992 6.34016 6.33992C6.59016 6.08992 6.82016 5.82992 7.02016 5.53992C7.21016 5.27992 7.39016 4.99992 7.55016 4.70992C7.71016 4.41992 7.84016 4.11992 7.95016 3.81992L7.96016 3.81992ZM8.57016 7.11992C8.53016 7.04992 8.51016 6.97992 8.49016 6.90992C8.47016 6.80992 8.42016 6.72992 8.35016 6.64992C8.28016 6.57992 8.19016 6.52992 8.09016 6.50992C7.95016 6.47992 7.83016 6.50992 7.71016 6.57992C7.65016 6.61992 7.61016 6.65992 7.57016 6.71992C7.53016 6.76992 7.51016 6.82992 7.50016 6.89992C7.48016 6.97992 7.46016 7.04992 7.42016 7.10992C7.38016 7.17992 7.34016 7.23992 7.28016 7.28992C7.22016 7.34992 7.16016 7.38992 7.10016 7.42992C7.03016 7.46992 6.96016 7.48992 6.89016 7.50992C6.79016 7.52992 6.71016 7.57992 6.63016 7.64992C6.56016 7.71992 6.51016 7.80992 6.49016 7.90992C6.46016 8.04992 6.49016 8.16992 6.56016 8.28992C6.64016 8.39992 6.74016 8.47992 6.88016 8.49992C6.96016 8.51992 7.03016 8.53992 7.09016 8.57992C7.16016 8.61992 7.22016 8.65992 7.27016 8.71992C7.33016 8.77992 7.37016 8.83992 7.41016 8.89992C7.45016 8.96992 7.47016 9.03992 7.49016 9.10992C7.51016 9.20992 7.56016 9.28992 7.63016 9.36992C7.70016 9.43992 7.79016 9.48992 7.89016 9.50992C8.03016 9.53992 8.15016 9.50992 8.27016 9.43992C8.33016 9.39992 8.37016 9.35992 8.41016 9.29992C8.45016 9.24992 8.47016 9.18992 8.48016 9.11992C8.50016 9.03992 8.52016 8.96992 8.56016 8.90992C8.60016 8.83992 8.64016 8.77992 8.70016 8.72992C8.76016 8.66992 8.82016 8.62992 8.88016 8.58992C8.95016 8.54992 9.02016 8.52992 9.09016 8.50992C9.19016 8.48992 9.27016 8.43992 9.35016 8.36992C9.39016 8.32992 9.41016 8.29992 9.44016 8.24992C9.46016 8.20992 9.48016 8.15992 9.49016 8.10992C9.52016 7.96992 9.49016 7.84992 9.42016 7.72992C9.34016 7.61992 9.24016 7.53992 9.10016 7.51992C9.02016 7.49992 8.95016 7.47992 8.89016 7.43992C8.82016 7.39992 8.76016 7.35992 8.71016 7.29992C8.65016 7.23992 8.61016 7.17992 8.57016 7.11992L8.57016 7.11992ZM11.5402 10.8299L13.3102 12.5999C13.5102 12.7999 13.5102 13.1099 13.3102 13.3099C13.1102 13.5099 12.8002 13.5099 12.6002 13.3099L10.8302 11.5399C10.6302 11.3399 10.6302 11.0299 10.8302 10.8299C11.0302 10.6299 11.3402 10.6299 11.5402 10.8299L11.5402 10.8299ZM2.70016 12.5999L4.47016 10.8299C4.67016 10.6299 4.98016 10.6299 5.18016 10.8299C5.38016 11.0299 5.38016 11.3399 5.18016 11.5399L3.41016 13.3099C3.21016 13.5099 2.90016 13.5099 2.70016 13.3099C2.50016 13.1099 2.50016 12.7999 2.70016 12.5999L2.70016 12.5999Z" fill="rgb(25,25,25)" fill-rule="evenodd" />
</svg>
