<svg viewBox="0 0 16 16" xmlns="http://www.w3.org/2000/svg" xmlns:xlink="http://www.w3.org/1999/xlink" width="16.000000" height="16.000000" fill="none">
	<rect id="发送-send" width="16.000000" height="16.000000" x="0.000000" y="0.000000" />
	<path id="_矢量_8248" d="M6.00023 3L12.5002 3C12.6402 3 12.7602 3.05 12.8502 3.15C12.9502 3.25 13.0002 3.37 13.0002 3.5L13.0002 10C13.0002 10.28 12.7802 10.5 12.5002 10.5C12.2202 10.5 12.0002 10.28 12.0002 10L12.0002 4.71L3.85023 12.85C3.65023 13.05 3.34023 13.05 3.14023 12.85C2.94023 12.65 2.94023 12.34 3.14023 12.14L11.2902 4L6.00023 4C5.72023 4 5.50023 3.78 5.50023 3.5C5.50023 3.22 5.72023 3 6.00023 3Z" fill="rgb(25,25,25)" fill-rule="evenodd" />
</svg>
