<svg viewBox="0 0 16 16" xmlns="http://www.w3.org/2000/svg" xmlns:xlink="http://www.w3.org/1999/xlink" width="16.000000" height="16.000000" fill="none">
	<rect id="开始-start" width="16.000000" height="16.000000" x="0.000000" y="0.000000" />
	<path id="形状结合" d="M8 1C11.866 1 15 4.13401 15 8C15 11.866 11.866 15 8 15C4.13401 15 1 11.866 1 8C1 4.13401 4.13401 1 8 1ZM8 2C4.68629 2 2 4.68629 2 8C2 11.3137 4.68629 14 8 14C11.3137 14 14 11.3137 14 8C14 4.68629 11.3137 2 8 2ZM6.90565 5.76C7.00472 5.76 7.10229 5.78507 7.18979 5.833L10.1384 7.44837C10.4338 7.6102 10.546 7.98834 10.3891 8.29296C10.3324 8.403 10.2451 8.49304 10.1384 8.5515L7.18979 10.1669C6.89439 10.3287 6.52772 10.2129 6.37079 9.90833C6.32431 9.8181 6.3 9.71748 6.3 9.61531L6.3 6.38457C6.3 6.03963 6.57116 5.76 6.90565 5.76Z" fill="rgb(25,25,25)" fill-rule="nonzero" />
</svg>
