<svg viewBox="0 0 16 16" xmlns="http://www.w3.org/2000/svg" xmlns:xlink="http://www.w3.org/1999/xlink" width="16.000000" height="16.000000" fill="none">
	<rect id="任务-task" width="16.000000" height="16.000000" x="0.000000" y="0.000000" />
	<path id="形状结合" d="M9.3772 1.17969C10.15 1.17969 10.8157 1.63869 11.1163 2.29896L11.4443 2.29969C12.7697 2.29969 13.8543 3.33122 13.9389 4.63531L13.9443 4.79969L13.9443 12.2997C13.9443 13.6252 12.9127 14.7097 11.6086 14.7944L11.4443 14.7997L4.55469 14.7997C3.2292 14.7997 2.14465 13.7682 2.06001 12.4641L2.05469 12.2997L2.05469 4.79969C2.05469 3.4742 3.08622 2.38965 4.39031 2.30501L4.55469 2.29969L4.8826 2.29896C5.18328 1.63869 5.84891 1.17969 6.62174 1.17969L9.3772 1.17969ZM9.3772 4.99969L6.62174 4.99969C5.63769 4.99969 4.82745 4.2555 4.72311 3.29921L4.55469 3.29969C3.77499 3.29969 3.13424 3.89458 3.06155 4.65523L3.05469 4.79969L3.05469 12.2997C3.05469 13.0794 3.64958 13.7201 4.41023 13.7928L4.55469 13.7997L11.4443 13.7997C12.224 13.7997 12.8647 13.2048 12.9374 12.4441L12.9443 12.2997L12.9443 4.79969C12.9443 4.01999 12.3494 3.37924 11.5887 3.30655L11.4443 3.29969L11.2758 3.29921C11.1715 4.2555 10.3613 4.99969 9.3772 4.99969ZM8.39947 9.28614C8.67562 9.28614 8.89947 9.51 8.89947 9.78614C8.89947 10.0316 8.7226 10.2358 8.48935 10.2781L8.39947 10.2861L5.19947 10.2861C4.92333 10.2861 4.69947 10.0623 4.69947 9.78614C4.69947 9.54068 4.87635 9.33653 5.1096 9.2942L5.19947 9.28614L8.39947 9.28614ZM10.7995 6.60559C11.0756 6.60559 11.2995 6.82945 11.2995 7.10559C11.2995 7.35105 11.1226 7.5552 10.8893 7.59754L10.7995 7.60559L5.19947 7.60559C4.92333 7.60559 4.69947 7.38174 4.69947 7.10559C4.69947 6.86013 4.87635 6.65598 5.1096 6.61365L5.19947 6.60559L10.7995 6.60559ZM9.3772 2.17969L6.62174 2.17969C6.11917 2.17969 5.71174 2.58711 5.71174 3.08969C5.71174 3.55637 6.06304 3.941 6.51562 3.99357L6.62174 3.99969L9.3772 3.99969C9.87978 3.99969 10.2872 3.59227 10.2872 3.08969C10.2872 2.62301 9.93591 2.23838 9.48333 2.18581L9.3772 2.17969Z" fill="rgb(128,128,128)" fill-rule="nonzero" />
</svg>
